<svg width="21" height="11" viewBox="0 0 21 11" fill="none" xmlns="http://www.w3.org/2000/svg">
<path d="M1.68725 0.282423C1.59178 0.192205 1.47947 0.121675 1.35674 0.0748596C1.23401 0.0280441 1.10327 0.00585961 0.971965 0.00957395C0.840663 0.0132883 0.711378 0.0428284 0.591492 0.0965071C0.471606 0.150186 0.363467 0.226952 0.273249 0.322423C0.183031 0.417894 0.112501 0.530201 0.0656853 0.652929C0.0188698 0.775658 -0.00331423 0.906405 0.000400115 1.03771C0.00411446 1.16901 0.0336543 1.29829 0.087333 1.41818C0.141012 1.53807 0.217778 1.64621 0.313249 1.73642L9.31325 10.2364C9.49892 10.412 9.74474 10.5098 10.0002 10.5098C10.2558 10.5098 10.5016 10.412 10.6872 10.2364L19.6882 1.73642C19.7858 1.6468 19.8646 1.53869 19.92 1.41836C19.9754 1.29803 20.0064 1.16789 20.0111 1.0355C20.0158 0.903103 19.9942 0.771094 19.9474 0.647137C19.9007 0.52318 19.8298 0.409747 19.7388 0.313426C19.6479 0.217106 19.5387 0.139817 19.4176 0.0860512C19.2965 0.032285 19.166 0.00311263 19.0335 0.000228155C18.9011 -0.00265632 18.7694 0.0208044 18.6461 0.0692484C18.5228 0.117692 18.4103 0.190154 18.3153 0.282423L10.0002 8.13442L1.68725 0.282423Z" fill="#333333"/>
</svg>
