<svg width="24" height="24" viewBox="0 0 24 24" fill="none" xmlns="http://www.w3.org/2000/svg">
<path fill-rule="evenodd" clip-rule="evenodd" d="M11.944 1.25H12.056C13.894 1.25 15.35 1.25 16.489 1.403C17.661 1.561 18.61 1.893 19.359 2.641C20.107 3.39 20.439 4.339 20.597 5.511C20.7 6.275 20.733 7.181 20.744 8.25H21C21.966 8.25 22.75 9.034 22.75 10V11C22.75 11.55 22.49 12.07 22.05 12.4L20.747 13.377C20.74 14.609 20.711 15.637 20.597 16.489C20.439 17.661 20.107 18.61 19.359 19.359C19.169 19.549 18.966 19.712 18.75 19.852V21C18.75 21.4641 18.5656 21.9092 18.2374 22.2374C17.9092 22.5656 17.4641 22.75 17 22.75H15.5C15.0359 22.75 14.5908 22.5656 14.2626 22.2374C13.9344 21.9092 13.75 21.4641 13.75 21V20.744C13.225 20.75 12.662 20.75 12.056 20.75H11.944C11.338 20.75 10.774 20.75 10.25 20.744V21C10.25 21.4641 10.0656 21.9092 9.73744 22.2374C9.40925 22.5656 8.96413 22.75 8.5 22.75H7C6.53587 22.75 6.09075 22.5656 5.76256 22.2374C5.43437 21.9092 5.25 21.4641 5.25 21V19.852C5.03027 19.7095 4.82614 19.5442 4.641 19.359C3.893 18.61 3.561 17.661 3.403 16.489C3.289 15.637 3.26 14.609 3.253 13.377L1.95 12.4C1.51 12.07 1.25 11.55 1.25 11V10C1.25 9.034 2.034 8.25 3 8.25H3.255C3.267 7.181 3.3 6.275 3.403 5.511C3.561 4.339 3.893 3.39 4.641 2.641C5.39 1.893 6.339 1.561 7.511 1.403C8.651 1.25 10.106 1.25 11.944 1.25ZM3.25 9.75H3C2.9337 9.75 2.87011 9.77634 2.82322 9.82322C2.77634 9.87011 2.75 9.9337 2.75 10V11C2.75 11.0388 2.75904 11.0771 2.77639 11.1118C2.79375 11.1465 2.81895 11.1767 2.85 11.2L3.25 11.5V9.75ZM4.756 13.75C4.766 14.784 4.798 15.608 4.89 16.29C5.025 17.295 5.279 17.875 5.702 18.298C6.125 18.721 6.705 18.975 7.711 19.11C8.739 19.248 10.093 19.25 12 19.25C13.907 19.25 15.261 19.248 16.29 19.11C17.295 18.975 17.875 18.721 18.298 18.298C18.721 17.875 18.975 17.295 19.11 16.289C19.202 15.609 19.233 14.784 19.244 13.75H4.756ZM19.25 12.25H4.75V10C4.75 8.117 4.752 6.773 4.885 5.75H19.115C19.248 6.773 19.25 8.117 19.25 10V12.25ZM20.75 11.5L21.15 11.2C21.181 11.1767 21.2062 11.1465 21.2236 11.1118C21.241 11.0771 21.25 11.0388 21.25 11V10C21.25 9.9337 21.2237 9.87011 21.1768 9.82322C21.1299 9.77634 21.0663 9.75 21 9.75H20.75V11.5ZM18.701 4.25C18.5952 4.04797 18.4593 3.8632 18.298 3.702C17.875 3.279 17.295 3.025 16.289 2.89C15.261 2.752 13.907 2.75 12 2.75C10.093 2.75 8.739 2.752 7.71 2.89C6.705 3.025 6.125 3.279 5.702 3.702C5.54079 3.86329 5.40492 4.04805 5.299 4.25H18.701ZM6.75 20.46V21C6.75 21.138 6.862 21.25 7 21.25H8.5C8.5663 21.25 8.62989 21.2237 8.67678 21.1768C8.72366 21.1299 8.75 21.0663 8.75 21V20.704C8.33571 20.6854 7.92236 20.6497 7.511 20.597C7.25533 20.5633 7.00139 20.5175 6.75 20.46ZM15.25 20.704V21C15.25 21.138 15.362 21.25 15.5 21.25H17C17.0663 21.25 17.1299 21.2237 17.1768 21.1768C17.2237 21.1299 17.25 21.0663 17.25 21V20.46C16.9987 20.5178 16.7447 20.5635 16.489 20.597C16.0776 20.6497 15.6643 20.6854 15.25 20.704ZM6.25 16C6.25 15.8011 6.32902 15.6103 6.46967 15.4697C6.61032 15.329 6.80109 15.25 7 15.25H8.5C8.69891 15.25 8.88968 15.329 9.03033 15.4697C9.17098 15.6103 9.25 15.8011 9.25 16C9.25 16.1989 9.17098 16.3897 9.03033 16.5303C8.88968 16.671 8.69891 16.75 8.5 16.75H7C6.80109 16.75 6.61032 16.671 6.46967 16.5303C6.32902 16.3897 6.25 16.1989 6.25 16ZM14.75 16C14.75 15.8011 14.829 15.6103 14.9697 15.4697C15.1103 15.329 15.3011 15.25 15.5 15.25H17C17.1989 15.25 17.3897 15.329 17.5303 15.4697C17.671 15.6103 17.75 15.8011 17.75 16C17.75 16.1989 17.671 16.3897 17.5303 16.5303C17.3897 16.671 17.1989 16.75 17 16.75H15.5C15.3011 16.75 15.1103 16.671 14.9697 16.5303C14.829 16.3897 14.75 16.1989 14.75 16Z" fill="black"/>
</svg>
