<svg width="13" height="19" viewBox="0 0 13 19" fill="none" xmlns="http://www.w3.org/2000/svg">
<path fill-rule="evenodd" clip-rule="evenodd" d="M5.6521 10.2009L0.956853 1.3695C0.929879 1.31876 0.913161 1.26322 0.907654 1.20602C0.902147 1.14883 0.907959 1.09112 0.924758 1.03617C0.958684 0.9252 1.0353 0.832254 1.13776 0.777777C1.24022 0.7233 1.36012 0.711754 1.47109 0.745681C1.52603 0.76248 1.57713 0.789936 1.62147 0.826483C1.6658 0.86303 1.7025 0.907952 1.72948 0.958683L6.42517 9.79006L7.09104 9.43568C7.29399 9.32779 7.5162 9.26093 7.74499 9.23893C7.97378 9.21692 8.20467 9.2402 8.42446 9.30744C8.64425 9.37468 8.84865 9.48455 9.02597 9.63079C9.20329 9.77703 9.35007 9.95677 9.45792 10.1597L9.74142 10.6931L12.747 15.0917L8.92417 17.1239L7.59985 14.5063L6.81935 14.9014L8.15154 17.5351L6.51267 18.4062L4.5461 13.4546L4.26304 12.9217C4.15513 12.7188 4.08825 12.4966 4.06621 12.2678C4.04418 12.039 4.06742 11.8082 4.13462 11.5884C4.20181 11.3686 4.31164 11.1642 4.45784 10.9868C4.60404 10.8095 4.78373 10.6627 4.98667 10.5548L5.6521 10.2009ZM7.50142 10.2087L5.39704 11.3274C5.29557 11.3814 5.20573 11.4548 5.13263 11.5434C5.05953 11.6321 5.00461 11.7343 4.97102 11.8442C4.93742 11.9541 4.9258 12.0695 4.93681 12.1839C4.94783 12.2983 4.98127 12.4094 5.03523 12.5109L5.31829 13.0437L8.96835 11.103L8.68485 10.5706C8.63091 10.4691 8.55751 10.3792 8.46884 10.3061C8.38017 10.233 8.27797 10.1781 8.16807 10.1445C8.05818 10.1109 7.94274 10.0993 7.82836 10.1103C7.71397 10.1213 7.60288 10.1548 7.50142 10.2087Z" fill="black"/>
<path d="M3.7735 14.47C3.69928 14.3808 3.5927 14.3248 3.47718 14.3142C3.36167 14.3037 3.24668 14.3394 3.1575 14.4136H3.15837L3.15356 14.4171L3.126 14.4381C3.08685 14.4675 3.04688 14.4958 3.00612 14.5229C2.89762 14.5951 2.73575 14.6936 2.5275 14.7924C1.99222 15.0497 1.40639 15.1847 0.8125 15.1875C0.696468 15.1875 0.585188 15.2336 0.503141 15.3156C0.421094 15.3977 0.375 15.509 0.375 15.625C0.375 15.741 0.421094 15.8523 0.503141 15.9343C0.585188 16.0164 0.696468 16.0625 0.8125 16.0625C1.53656 16.0597 2.25092 15.8958 2.90375 15.5826C3.10739 15.4861 3.30388 15.3753 3.49175 15.2509C3.56209 15.2039 3.63067 15.1543 3.69737 15.1022L3.7105 15.0921L3.71488 15.0886L3.71619 15.0869H3.71706L3.7175 15.086C3.80658 15.0117 3.86252 14.9051 3.87303 14.7896C3.88353 14.6741 3.84773 14.5591 3.7735 14.47ZM4.6765 16.6947C4.70839 16.7425 4.73056 16.7961 4.74173 16.8525C4.7529 16.9088 4.75286 16.9668 4.7416 17.0232C4.73035 17.0795 4.70811 17.1331 4.67614 17.1809C4.64418 17.2286 4.60312 17.2696 4.55531 17.3015L4.55444 17.3024L4.55269 17.3032L4.54831 17.3059L4.53475 17.3146C4.459 17.3628 4.38213 17.4092 4.30419 17.4537C4.15063 17.5417 3.93231 17.6585 3.66981 17.7749C3.15356 18.0046 2.43169 18.25 1.6875 18.25C1.57147 18.25 1.46019 18.2039 1.37814 18.1218C1.29609 18.0398 1.25 17.9285 1.25 17.8125C1.25 17.6965 1.29609 17.5852 1.37814 17.5031C1.46019 17.4211 1.57147 17.375 1.6875 17.375C2.25537 17.375 2.84687 17.1829 3.31456 16.9751C3.55822 16.8664 3.79466 16.7422 4.02244 16.6032C4.0352 16.5957 4.04775 16.5878 4.06006 16.5796L4.06881 16.5744L4.06969 16.5735C4.11749 16.5416 4.1711 16.5194 4.22747 16.5083C4.28383 16.4971 4.34185 16.4971 4.3982 16.5084C4.45455 16.5196 4.50813 16.5419 4.55588 16.5738C4.60363 16.6058 4.64462 16.6469 4.6765 16.6947Z" fill="black"/>
</svg>
