<svg width="11" height="21" viewBox="0 0 11 21" fill="none" xmlns="http://www.w3.org/2000/svg">
<path d="M0.782087 18.3243C0.691869 18.4197 0.62134 18.532 0.574524 18.6548C0.527709 18.7775 0.505524 18.9082 0.509238 19.0395C0.512953 19.1708 0.542493 19.3001 0.596171 19.42C0.64985 19.5399 0.726616 19.648 0.822087 19.7383C0.917558 19.8285 1.02986 19.899 1.15259 19.9458C1.27532 19.9926 1.40607 20.0148 1.53737 20.0111C1.66867 20.0074 1.79796 19.9779 1.91784 19.9242C2.03773 19.8705 2.14587 19.7937 2.23609 19.6983L10.7361 10.6983C10.9116 10.5126 11.0094 10.2668 11.0094 10.0113C11.0094 9.75574 10.9116 9.50993 10.7361 9.32426L2.23609 0.323255C2.14647 0.225694 2.03835 0.146912 1.91802 0.0914871C1.7977 0.0360625 1.66756 0.00509974 1.53516 0.0003959C1.40277 -0.00430794 1.27076 0.0173425 1.1468 0.064088C1.02285 0.110833 0.909413 0.181742 0.813092 0.272697C0.716771 0.363651 0.639483 0.472838 0.585717 0.593915C0.531951 0.714992 0.502778 0.845546 0.499894 0.977992C0.497009 1.11044 0.52047 1.24214 0.568914 1.36544C0.617358 1.48874 0.689819 1.60119 0.782089 1.69625L8.63409 10.0113L0.782087 18.3243Z" fill="black"/>
</svg>
