<svg width="18" height="14" viewBox="0 0 18 14" fill="none" xmlns="http://www.w3.org/2000/svg">
<path d="M12.0357 8.78573C11.8937 8.78573 11.7574 8.84217 11.6569 8.94263C11.5565 9.0431 11.5 9.17936 11.5 9.32144C11.5 9.46352 11.5565 9.59978 11.6569 9.70025C11.7574 9.80071 11.8937 9.85716 12.0357 9.85716H14.5357C14.6778 9.85716 14.8141 9.80071 14.9146 9.70025C15.015 9.59978 15.0715 9.46352 15.0715 9.32144C15.0715 9.17936 15.015 9.0431 14.9146 8.94263C14.8141 8.84217 14.6778 8.78573 14.5357 8.78573H12.0357ZM0.431458 3.25001C0.431458 2.53961 0.713663 1.85831 1.21599 1.35598C1.71832 0.853647 2.39963 0.571442 3.11003 0.571442H14.8929C15.6033 0.571442 16.2846 0.853647 16.7869 1.35598C17.2893 1.85831 17.5715 2.53961 17.5715 3.25001V10.75C17.5715 11.4604 17.2893 12.1417 16.7869 12.644C16.2846 13.1464 15.6033 13.4286 14.8929 13.4286H3.11074C2.40034 13.4286 1.71904 13.1464 1.21671 12.644C0.714378 12.1417 0.432172 11.4604 0.432172 10.75V3.25001H0.431458ZM3.11003 1.64287C2.68379 1.64287 2.275 1.81219 1.97361 2.11359C1.67221 2.41499 1.50289 2.82377 1.50289 3.25001V3.78573H16.5V3.25001C16.5 2.82377 16.3307 2.41499 16.0293 2.11359C15.7279 1.81219 15.3191 1.64287 14.8929 1.64287H3.11003ZM1.50289 10.75C1.50289 11.1763 1.67221 11.585 1.97361 11.8864C2.275 12.1878 2.68379 12.3572 3.11003 12.3572H14.8929C15.3191 12.3572 15.7279 12.1878 16.0293 11.8864C16.3307 11.585 16.5 11.1763 16.5 10.75V4.85716H1.5036V10.75H1.50289Z" fill="black"/>
</svg>
