<svg width="16" height="16" viewBox="0 0 16 16" fill="none" xmlns="http://www.w3.org/2000/svg">
<path d="M14.1782 10.7188L11.9557 10.465C11.6944 10.4343 11.4295 10.4632 11.181 10.5496C10.9324 10.636 10.7067 10.7776 10.5207 10.9638L8.91071 12.5738C6.42675 11.3104 4.40777 9.29146 3.14446 6.8075L4.76321 5.18875C5.13946 4.8125 5.32321 4.2875 5.26196 3.75375L5.00821 1.54875C4.95861 1.12191 4.75376 0.728208 4.43267 0.442618C4.11158 0.157027 3.69668 -0.000509473 3.26696 1.23785e-06H1.75321C0.764465 1.23785e-06 -0.0580357 0.822501 0.00321429 1.81125C0.466964 9.28375 6.44321 15.2513 13.907 15.715C14.8957 15.7763 15.7182 14.9538 15.7182 13.965V12.4513C15.727 11.5675 15.062 10.8238 14.1782 10.7188Z" fill="black"/>
</svg>
