<svg width="20" height="22" viewBox="0 0 20 22" fill="none" xmlns="http://www.w3.org/2000/svg">
<path d="M10.6875 8.75V3.5H4.5V15.5H15.5V8.75H10.6875ZM5.875 5H9.3125V8.75H5.875V5ZM5.875 10.25H9.3125V14H5.875V10.25ZM14.125 14H10.6875V10.25H14.125V14Z" fill="black"/>
<path d="M18.25 7.25H12.0625V0.5H18.25V7.25ZM13.4375 5.75H16.875V2H13.4375V5.75ZM18.25 14H16.875V15.5H18.25V20H1.75V15.5H3.125V14H1.75C1.38544 14.0004 1.03591 14.1586 0.77813 14.4398C0.520347 14.721 0.375364 15.1023 0.375 15.5V20C0.375364 20.3977 0.520347 20.779 0.77813 21.0602C1.03591 21.3414 1.38544 21.4996 1.75 21.5H18.25C18.6146 21.4996 18.9641 21.3414 19.2219 21.0602C19.4797 20.779 19.6246 20.3977 19.625 20V15.5C19.6246 15.1023 19.4797 14.721 19.2219 14.4398C18.9641 14.1586 18.6146 14.0004 18.25 14Z" fill="black"/>
<path d="M3.8125 18.5C4.1922 18.5 4.5 18.1642 4.5 17.75C4.5 17.3358 4.1922 17 3.8125 17C3.4328 17 3.125 17.3358 3.125 17.75C3.125 18.1642 3.4328 18.5 3.8125 18.5Z" fill="black"/>
</svg>
