<svg width="23" height="23" viewBox="0 0 23 23" fill="none" xmlns="http://www.w3.org/2000/svg">
<path d="M1.375 21.625L7.9375 15.0625M21.5 9.375C21.5 10.4092 21.2963 11.4332 20.9006 12.3886C20.5048 13.3441 19.9247 14.2122 19.1935 14.9435C18.4622 15.6747 17.5941 16.2548 16.6386 16.6506C15.6832 17.0463 14.6592 17.25 13.625 17.25C12.5908 17.25 11.5668 17.0463 10.6114 16.6506C9.65593 16.2548 8.7878 15.6747 8.05653 14.9435C7.32527 14.2122 6.7452 13.3441 6.34945 12.3886C5.95369 11.4332 5.75 10.4092 5.75 9.375C5.75 7.28642 6.57969 5.28338 8.05653 3.80653C9.53338 2.32969 11.5364 1.5 13.625 1.5C15.7136 1.5 17.7166 2.32969 19.1935 3.80653C20.6703 5.28338 21.5 7.28642 21.5 9.375Z" stroke="black" stroke-width="2" stroke-linecap="round" stroke-linejoin="round"/>
</svg>
