<svg width="19" height="19" viewBox="0 0 19 19" fill="none" xmlns="http://www.w3.org/2000/svg">
<path d="M9.5 18.6875C7.68289 18.6875 5.90658 18.1487 4.3957 17.1391C2.88483 16.1296 1.70724 14.6947 1.01186 13.0159C0.316481 11.3371 0.134538 9.48981 0.489039 7.70761C0.843541 5.92541 1.71857 4.28836 3.00346 3.00346C4.28836 1.71857 5.92541 0.843541 7.70761 0.489039C9.48981 0.134538 11.3371 0.316481 13.0159 1.01186C14.6947 1.70724 16.1296 2.88483 17.1391 4.3957C18.1487 5.90658 18.6875 7.68289 18.6875 9.5C18.6875 11.9367 17.7195 14.2736 15.9965 15.9965C14.2736 17.7195 11.9367 18.6875 9.5 18.6875ZM9.5 1.625C7.94248 1.625 6.41993 2.08686 5.12489 2.95218C3.82985 3.8175 2.82049 5.0474 2.22445 6.48637C1.62841 7.92534 1.47246 9.50874 1.77632 11.0363C2.08018 12.5639 2.8302 13.9671 3.93154 15.0685C5.03288 16.1698 6.43607 16.9198 7.96367 17.2237C9.49127 17.5275 11.0747 17.3716 12.5136 16.7756C13.9526 16.1795 15.1825 15.1702 16.0478 13.8751C16.9131 12.5801 17.375 11.0575 17.375 9.5C17.375 7.41142 16.5453 5.40839 15.0685 3.93154C13.5916 2.45469 11.5886 1.625 9.5 1.625Z" fill="black"/>
<path d="M12.5122 13.4375L8.84375 9.76906V3.59375H10.1562V9.22437L13.4375 12.5122L12.5122 13.4375Z" fill="black"/>
</svg>
