<svg width="21" height="15" viewBox="0 0 21 15" fill="none" xmlns="http://www.w3.org/2000/svg">
<path d="M20.3044 7.27687C19.5325 5.28033 18.1926 3.55372 16.4501 2.31043C14.7076 1.06715 12.6391 0.361688 10.5 0.28125C8.36099 0.361688 6.29241 1.06715 4.54994 2.31043C2.80747 3.55372 1.46751 5.28033 0.695651 7.27687C0.643523 7.42106 0.643523 7.57894 0.695651 7.72313C1.46751 9.71967 2.80747 11.4463 4.54994 12.6896C6.29241 13.9329 8.36099 14.6383 10.5 14.7188C12.6391 14.6383 14.7076 13.9329 16.4501 12.6896C18.1926 11.4463 19.5325 9.71967 20.3044 7.72313C20.3565 7.57894 20.3565 7.42106 20.3044 7.27687ZM10.5 13.4062C7.0219 13.4062 3.3469 10.8272 2.01471 7.5C3.3469 4.17281 7.0219 1.59375 10.5 1.59375C13.9782 1.59375 17.6532 4.17281 18.9853 7.5C17.6532 10.8272 13.9782 13.4062 10.5 13.4062Z" fill="black"/>
<path d="M10.5 3.5625C9.72124 3.5625 8.95996 3.79343 8.31244 4.22609C7.66493 4.65875 7.16025 5.2737 6.86223 5.99318C6.56421 6.71267 6.48623 7.50437 6.63816 8.26817C6.79009 9.03197 7.1651 9.73356 7.71577 10.2842C8.26644 10.8349 8.96803 11.2099 9.73183 11.3618C10.4956 11.5138 11.2873 11.4358 12.0068 11.1378C12.7263 10.8398 13.3413 10.3351 13.7739 9.68756C14.2066 9.04004 14.4375 8.27876 14.4375 7.5C14.4375 6.45571 14.0227 5.45419 13.2842 4.71577C12.5458 3.97734 11.5443 3.5625 10.5 3.5625ZM10.5 10.125C9.98083 10.125 9.47331 9.97105 9.04163 9.68261C8.60995 9.39417 8.2735 8.9842 8.07482 8.50454C7.87614 8.02489 7.82415 7.49709 7.92544 6.98789C8.02673 6.47869 8.27673 6.01096 8.64385 5.64384C9.01096 5.27673 9.47869 5.02672 9.98789 4.92544C10.4971 4.82415 11.0249 4.87614 11.5045 5.07482C11.9842 5.2735 12.3942 5.60995 12.6826 6.04163C12.971 6.47331 13.125 6.98082 13.125 7.5C13.125 8.19619 12.8484 8.86387 12.3562 9.35615C11.8639 9.84844 11.1962 10.125 10.5 10.125Z" fill="black"/>
</svg>
